<svg width="11073" height="11065" xmlns="http://www.w3.org/2000/svg" xmlns:svg="http://www.w3.org/2000/svg" clip-rule="evenodd">
    <g>
     <title>Layer 1</title>
     <g id="Layer_x0020_1">
      <metadata id="CorelCorpID_0Corel-Layer"/>
      <path fill="#f40d26" fill-rule="nonzero" d="m8821,7718c88,-340 436,-544 776,-456c341,88 546,436 457,776c-88,341 -436,546 -777,457c-340,-88 -545,-436 -456,-777zm-659,-171c-45,172 -53,344 -31,509l143,-20c21,156 73,304 151,437l-123,73c86,147 200,277 337,381l20,-25l68,-89c120,91 260,161 416,201l-37,140c172,44 344,53 509,30l-20,-143c156,-21 304,-73 437,-151l73,124c147,-86 277,-201 381,-338l0,0l-33,-26l-81,-61c91,-121 161,-261 201,-416l140,36c44,-171 53,-344 30,-509l-143,20c-20,-156 -73,-304 -151,-437l124,-73c-86,-146 -201,-276 -338,-381l-87,115c-121,-92 -261,-161 -416,-202l36,-139c-171,-45 -344,-53 -509,-30l20,142c-156,21 -304,73 -437,151l-72,-124c-148,86 -277,201 -382,339l1,1l76,57l38,29c-92,120 -162,261 -202,416l-139,-37z" id="svg_1"/>
      <path fill="none" fill-rule="nonzero" stroke="#f40d26" stroke-width="20.1224" d="m10046,5189c107,-163 327,-209 490,-101c164,107 210,326 102,490c-107,164 -327,209 -490,102c-164,-107 -210,-327 -102,-491zm-316,-207c-54,82 -90,171 -107,262l78,15c-16,86 -15,173 2,257l-78,16c19,93 56,182 110,261l15,-10l51,-34c47,69 109,131 183,180l-44,67c83,54 171,89 262,106l16,-78c85,17 173,16 257,-2l16,79c92,-20 181,-57 261,-110l0,-1l-13,-19l-32,-47c70,-47 132,-108 180,-183l67,44c54,-82 90,-171 107,-262l-79,-15c17,-86 16,-173 -1,-257l78,-16c-19,-93 -56,-182 -110,-261l-66,44c-47,-69 -109,-131 -183,-180l44,-67c-82,-54 -172,-89 -263,-106l-15,78c-85,-17 -173,-16 -257,2l-16,-79c-93,20 -181,57 -261,111l0,0l30,44l15,22c-70,47 -131,108 -181,183l-66,-44z" id="svg_2"/>
      <path fill="#bd081c" fill-rule="nonzero" d="m9669,11065l-9606,0c-35,0 -63,-28 -63,-63c0,-35 28,-64 63,-64l9606,0c35,0 63,29 63,64c0,35 -28,63 -63,63z" id="svg_3"/>
      <path fill="#bfbfbf" fill-rule="nonzero" d="m9123,570c-87,-516 -882,-749 -867,-412l-3645,21c-252,2 -457,229 -457,508l-8,9586c0,289 208,526 465,528l3721,32c24,48 67,92 135,129c427,9 631,-202 706,-440c24,-64 38,-134 37,-209c-15,-125 -60,-9622 -87,-9743z" id="svg_4"/>
      <path fill="#000000" fill-rule="nonzero" d="m8427,10964l-4271,-28c-267,-2 -482,-244 -482,-542l16,-9859c1,-286 213,-519 474,-520l4189,-14c263,0 478,232 481,520l76,9905c2,298 -214,539 -483,538z" id="svg_5"/>
      <path fill="black" fill-rule="nonzero" d="m8486,10892c-18,2 -36,3 -54,3l-4270,-32c-229,-2 -416,-215 -416,-474l15,-9848c0,-250 185,-455 409,-456l4188,-18c7,0 13,0 20,1c105,4 204,52 278,135c75,84 116,195 117,313l75,9915c2,235 -153,433 -362,461z" id="svg_6"/>
      <polygon fill="#f40d26" fill-rule="nonzero" points="8627,543 8699,10423 3888,10394 3901,543 " id="svg_7"/>
      <polygon fill="#ffffff" fill-rule="nonzero" points="5318,8571 7264,8571 7264,8425 5318,8425 " id="svg_8"/>
      <polygon fill="#ffffff" fill-rule="nonzero" points="4691,8895 7918,8895 7918,8750 4691,8750 " id="svg_9"/>
      <polygon fill="#ffffff" fill-rule="nonzero" points="4826,9220 7783,9220 7783,9074 4826,9074 " id="svg_10"/>
      <path fill="#ffffff" fill-rule="nonzero" d="m5860,6285l0,600c0,67 816,67 816,0l0,-600l-816,0z" id="svg_11"/>
      <path fill="#ffffff" fill-rule="nonzero" d="m6605,6255l-83,0l0,-200c0,-140 -114,-254 -254,-254c-140,0 -254,114 -254,254l0,41l-83,0l0,-41c0,-186 152,-337 337,-337c186,0 337,151 337,337l0,200z" id="svg_12"/>
      <path fill="#bd081c" fill-rule="nonzero" d="m6192,6794c-9,0 -17,-4 -23,-10l-135,-144c-12,-13 -11,-34 2,-45c13,-12 33,-12 45,1l113,121l316,-289c13,-12 33,-11 45,2c12,13 11,33 -2,45l-339,310c-7,6 -14,9 -22,9z" id="svg_13"/>
      <path fill="#000000" fill-rule="nonzero" d="m2316,5155c-123,-49 -213,-237 -50,-322c164,-84 651,172 590,283c-93,168 -417,89 -540,39z" id="svg_14"/>
      <path fill="#bd081c" fill-rule="nonzero" d="m2537,5673c-181,-249 -20,-683 332,-571c203,203 824,372 878,495l508,-408c22,-35 50,-52 86,-44c57,85 125,139 212,137c0,0 40,26 10,90c-116,246 -463,664 -721,719c-305,64 -1167,-253 -1305,-418z" id="svg_15"/>
      <path fill="#F7A58E" fill-rule="nonzero" d="m4606,5293c0,0 349,-71 254,-408c-40,-142 -378,103 -378,103c0,0 39,-215 -45,-183c-49,18 -126,225 -109,396c6,56 134,212 278,92z" id="svg_16"/>
      <path fill="black" fill-rule="nonzero" d="m4494,5382l333,6c21,0 39,-17 40,-38l19,-685c1,-22 -17,-40 -39,-40l-333,-6c-21,-1 -39,16 -40,37l-18,685c-1,22 16,40 38,41z" id="svg_17"/>
      <polygon fill="#AAE0FF" fill-rule="nonzero" points="4509,4853 4781,5236 4499,5229 " id="svg_18"/>
      <polygon fill="white" fill-rule="nonzero" points="4513,4684 4846,4693 4833,5237 4781,5236 4509,4853 " id="svg_19"/>
      <path fill="#F7A58E" fill-rule="nonzero" d="m4894,4762c-22,-8 -108,-46 -106,168c2,130 43,235 104,199c61,-36 57,-253 2,-367z" id="svg_20"/>
      <path fill="#092E66" fill-rule="nonzero" d="m2839,6924c0,0 437,1177 516,1613c79,436 -244,2088 -244,2088l-397,98l-58,-1904l-758,-1895l941,0z" id="svg_21"/>
      <path fill="#092E66" fill-rule="nonzero" d="m1452,6935c-70,487 11,1145 -10,1956l-406,1736c273,61 211,213 406,52c0,0 655,-1258 769,-1705c78,-304 137,-2060 137,-2060l-896,21z" id="svg_22"/>
      <path fill="#ffffff" fill-rule="nonzero" d="m2891,5148c0,0 -269,-246 -884,-141c-155,152 -486,1303 -524,1877c339,241 1303,178 1356,40l52,-1776z" id="svg_23"/>
      <path fill="#bd081c" fill-rule="nonzero" d="m2792,5057c251,72 263,570 263,570l-39,1475c-24,62 -80,189 -333,200c11,-687 212,-1632 109,-2245z" id="svg_24"/>
      <path fill="white" fill-rule="nonzero" d="m2309,4967c0,0 -58,54 -49,115c10,61 125,173 280,193c156,19 243,-2 263,-97c19,-95 -35,-129 -64,-146c-29,-17 -368,-90 -430,-65z" id="svg_25"/>
      <path fill="#F7A58E" fill-rule="nonzero" d="m2882,4535l-48,324l-40,268l-1,7c-57,215 -563,17 -468,-157l199,-472l358,30z" id="svg_26"/>
      <path fill="#E87C5D" fill-rule="nonzero" d="m2834,4859l-40,268c-277,-77 -310,-458 -310,-458c114,-34 257,71 350,190z" id="svg_27"/>
      <path fill="#7f0000" fill-rule="nonzero" d="m1684,10628l-113,-34c-72,-147 -391,-129 -349,50c-125,18 -190,-44 -190,-44l-43,338l675,0l20,-310z" id="svg_28"/>
      <path fill="#f40d26" fill-rule="nonzero" d="m1308,10938c0,-1 0,-3 0,-4c3,-172 144,-312 316,-312c172,0 309,140 307,312c0,1 -1,3 -1,4l-622,0z" id="svg_29"/>
      <path fill="#0E0E0E" fill-rule="nonzero" d="m1342,10680c-3,0 -5,0 -7,-2c-6,-3 -8,-11 -4,-17c3,-4 71,-106 223,-97c6,0 12,6 11,13c0,7 -6,12 -13,11c-138,-7 -199,86 -200,87c-2,3 -6,5 -10,5z" id="svg_30"/>
      <path fill="#0E0E0E" fill-rule="nonzero" d="m1418,10704c-3,0 -6,0 -8,-2c-5,-5 -7,-12 -2,-18c3,-4 79,-99 230,-77c7,1 12,8 11,14c-1,7 -8,12 -15,11c-135,-20 -204,64 -207,68c-2,3 -6,4 -9,4z" id="svg_31"/>
      <path fill="#7f0000" fill-rule="nonzero" d="m3365,10628l-113,-34c-72,-147 -391,-129 -349,50c-125,18 -190,-44 -190,-44l-43,338l675,0l20,-310z" id="svg_32"/>
      <path fill="#f40d26" fill-rule="nonzero" d="m2989,10938c0,-1 0,-3 0,-4c3,-172 144,-312 316,-312c172,0 309,140 307,312c0,1 -1,3 -1,4l-622,0z" id="svg_33"/>
      <path fill="#0E0E0E" fill-rule="nonzero" d="m3022,10680c-2,0 -4,0 -6,-2c-6,-3 -8,-11 -4,-17c3,-4 70,-106 222,-97c7,0 13,6 12,13c0,7 -6,12 -13,11c-138,-7 -200,86 -200,87c-2,3 -7,5 -11,5z" id="svg_34"/>
      <path fill="#0E0E0E" fill-rule="nonzero" d="m3098,10704c-2,0 -5,0 -7,-2c-6,-5 -6,-12 -2,-18c3,-4 80,-99 230,-77c7,1 12,8 11,14c-1,7 -8,12 -14,11c-136,-20 -205,64 -208,68c-2,3 -6,4 -10,4z" id="svg_35"/>
      <path fill="#bd081c" fill-rule="nonzero" d="m2259,7239c-204,-20 -721,-109 -839,-193c40,-861 345,-1863 499,-2014c90,-66 321,-110 412,-86c27,666 -82,1880 -72,2293z" id="svg_36" stroke="#ffaaff"/>
      <path fill="#F7A58E" fill-rule="nonzero" d="m3205,4289c92,215 72,534 -180,644c-251,109 -559,-65 -687,-359c-128,-293 -27,-620 224,-729c252,-110 587,87 643,444z" id="svg_37"/>
      <path fill="#723917" fill-rule="nonzero" d="m2968,4523c-1,-1 -1,-2 -2,-3c0,-2 1,-4 3,-5c1,0 51,-18 54,-55c2,-22 -21,-26 -50,-29c-11,-1 -20,-2 -24,-5l-2,-2l-24,-52c0,-2 0,-4 3,-5c2,-1 4,0 5,2l24,50c3,2 11,3 19,3c24,3 61,6 58,39c-4,42 -58,61 -60,62c-2,1 -3,0 -4,0z" id="svg_38"/>
      <path fill="#502910" fill-rule="nonzero" d="m3028,4304c-13,-32 -9,-62 9,-69c19,-8 43,10 56,42l-14,6c-10,-24 -27,-38 -36,-35c-9,4 -11,26 -1,50l-14,6z" id="svg_39"/>
      <path fill="#502910" fill-rule="nonzero" d="m2631,4425c-13,-32 -9,-62 9,-69c18,-8 42,10 56,42l-14,5c-10,-24 -27,-38 -36,-34c-9,4 -11,26 -1,50l-14,6z" id="svg_40"/>
      <path fill="#723917" fill-rule="nonzero" d="m2702,4698c-17,-10 -34,-21 -51,-35c-3,-2 -3,-5 -1,-7c1,-1 4,-2 6,0c189,157 383,1 385,0c2,-2 5,-2 6,0c2,2 2,5 0,6c-2,2 -169,135 -345,36z" id="svg_41"/>
      <path fill="#0E0E0E" fill-rule="nonzero" d="m2907,3987c27,67 -45,201 -202,83c10,74 -82,184 -170,97c0,151 -135,342 -95,574c-236,-124 -572,-528 -248,-842c-18,-228 383,-299 574,-294c256,-31 425,83 481,200c69,142 -29,288 -340,182z" id="svg_42"/>
      <path fill="#F7A58E" fill-rule="nonzero" d="m2517,4481c8,51 -28,99 -80,107c-52,7 -100,-29 -107,-80c-8,-52 28,-100 80,-108c52,-7 100,29 107,81z" id="svg_43"/>
      <path fill="#F59176" fill-rule="nonzero" d="m3030,4410c3,23 46,36 95,29c50,-7 87,-31 84,-54c-3,-23 -46,-36 -96,-29c-49,7 -86,31 -83,54z" id="svg_44"/>
      <path fill="#F59176" fill-rule="nonzero" d="m2585,4525c3,23 48,35 99,28c52,-7 91,-32 88,-55c-3,-23 -48,-35 -100,-28c-51,7 -91,32 -87,55z" id="svg_45"/>
      <path fill="#F7A58E" fill-rule="nonzero" d="m4073,5675c0,0 20,-244 201,-283c45,-7 87,76 87,76c0,0 310,-212 333,-171c35,64 -189,227 -189,227c0,0 127,184 33,244c-94,61 -228,136 -285,148c-57,12 -197,-115 -180,-241z" id="svg_46"/>
      <path fill="#bd081c" fill-rule="nonzero" d="m2100,5221l1065,611l897,-152c95,25 238,225 190,264c0,0 -695,522 -1153,390c-458,-132 -1314,-451 -1314,-451l315,-662z" id="svg_47"/>
      <path fill="#3B4166" fill-rule="nonzero" d="m3254,6354c-77,0 -153,-9 -218,-34c-595,-162 -1112,-381 -1117,-383c-7,-3 -10,-10 -7,-17c3,-6 10,-9 16,-6c5,2 521,221 1115,382l1,1c224,85 585,-19 627,-42c6,-3 14,-1 17,5c3,6 1,14 -5,17c-32,17 -232,77 -429,77z" id="svg_48"/>
      <path fill="#3B4166" fill-rule="nonzero" d="m3162,5845l-4,-3c-259,-169 -1004,-554 -1011,-558c-6,-3 -8,-11 -5,-17c3,-6 10,-8 16,-5c8,4 746,386 1010,557c207,-31 424,-69 426,-69c7,-1 13,3 14,10c1,7 -3,13 -10,14c-2,1 -223,39 -431,70l-5,1z" id="svg_49"/>
      <polygon fill="#ffffff" fill-rule="nonzero" points="5290,2841 7236,2841 7236,2695 5290,2695 " id="svg_50"/>
      <polygon fill="#ffffff" fill-rule="nonzero" points="4663,3165 7890,3165 7890,3019 4663,3019 " id="svg_51"/>
      <polygon fill="#ffffff" fill-rule="nonzero" points="4798,3489 7754,3489 7754,3343 4798,3343 " id="svg_52"/>
     </g>
    </g>
   </svg>