<svg width="6195" height="5380" xmlns="http://www.w3.org/2000/svg" xmlns:svg="http://www.w3.org/2000/svg" clip-rule="evenodd">
    <g>
     <title>Layer 1</title>
     <g id="Layer_x0020_1">
      <metadata id="CorelCorpID_0Corel-Layer"/>
      <path id="svg_1" d="m4817,273c-41,-247 -422,-359 -414,-197l-1745,10c-120,0 -218,109 -219,243l-3,4587c0,138 99,251 223,252l1780,16c11,23 32,44 64,61c205,5 303,-96 338,-210c12,-31 18,-64 18,-100c-7,-60 -29,-4604 -42,-4662z" fill-rule="nonzero" fill="#bfbfbf"/>
      <path id="svg_2" d="m4484,5246l-2043,-13c-128,-1 -231,-117 -231,-259l8,-4718c0,-137 102,-248 227,-249l2004,-6c126,-1 229,111 230,248l36,4740c1,143 -102,258 -231,257z" fill-rule="nonzero" fill="#000000"/>
      <path id="svg_3" d="m4513,5212c-9,1 -18,2 -26,1l-2043,-15c-110,-1 -200,-103 -199,-227l7,-4712c0,-120 88,-218 195,-218l2004,-9c4,0 7,0 10,0c50,3 97,26 133,65c36,40 56,93 56,150l36,4744c1,113 -73,207 -173,221z" fill-rule="nonzero" fill="black"/>
      <polygon id="svg_4" points="4580,271 4614,4998 2313,4985 2318,271 " fill-rule="nonzero" fill="#f40d26"/>
      <path id="svg_5" d="m3466,980c0,-1 -1,-1 -1,-1c-113,120 -292,219 -485,261c0,13 0,84 -2,413c-1,437 415,651 480,684c-190,-769 -41,-1234 8,-1357z" fill-rule="nonzero" fill="#f40d26"/>
      <path id="svg_6" d="m3466,980c-49,123 -198,588 -8,1357c62,-29 484,-242 486,-680c2,-328 2,-399 2,-412c-192,-44 -368,-144 -480,-265z" fill-rule="nonzero" fill="#bd081c"/>
      <path id="svg_7" d="m2988,1247l-1,406c-2,389 326,600 471,675c63,-30 476,-241 478,-671l0,-123c1,-196 2,-262 2,-283c-184,-43 -359,-140 -473,-260c-114,119 -291,214 -477,256zm470,1099l-4,-2c-126,-64 -215,-140 -267,-192c-144,-145 -217,-313 -217,-500l2,-418l7,-2c187,-41 367,-138 480,-259l6,-6l7,7c112,122 290,220 476,263l6,1l0,7c0,11 0,65 -1,289l-1,123c-2,449 -441,664 -491,687l-3,2z" fill-rule="nonzero" fill="white"/>
      <path id="svg_8" d="m3073,1316l-1,338c-1,155 61,296 184,418c77,77 157,126 203,150c43,-23 125,-71 204,-148c124,-121 187,-261 188,-417l1,-337c-150,-42 -287,-115 -389,-206c-102,90 -239,162 -390,202zm385,943l-7,-4c-45,-24 -134,-76 -218,-160c-130,-128 -195,-277 -194,-442l2,-362l12,-3c155,-40 297,-114 400,-208l11,-10l12,11c101,95 242,169 397,211l12,3l-2,362c-1,165 -67,313 -198,440c-82,81 -169,132 -213,155l-1,0c-2,1 -4,2 -5,3l-8,4z" fill-rule="nonzero" fill="#ffffff"/>
      <path id="svg_9" d="m3484,1746l0,81c0,11 -8,20 -19,20c-11,0 -20,-9 -20,-20l0,-81c-17,-8 -29,-25 -29,-44c0,-27 22,-49 49,-49c26,0 48,22 48,49c0,19 -12,36 -29,44zm-215,-153l0,287c0,32 391,32 391,0l0,-287l-391,0z" fill-rule="nonzero" fill="#ffffff"/>
      <path id="svg_10" d="m3626,1573l-40,0l0,-20c0,-67 -54,-121 -121,-121c-67,0 -122,54 -122,121l0,20l-39,0l0,-20c0,-88 72,-161 161,-161c88,0 161,73 161,161l0,20z" fill-rule="nonzero" fill="#ffffff"/>
      <polygon id="svg_11" points="2882,2788 4011,2788 4011,2565 2882,2565 " fill-rule="nonzero" fill="white"/>
      <path id="svg_12" d="m3156,2684c0,27 -22,49 -49,49c-27,0 -48,-22 -48,-49c0,-27 21,-49 48,-49c27,0 49,22 49,49z" fill-rule="nonzero" fill="#7f0000"/>
      <path id="svg_13" d="m3323,2684c0,27 -22,49 -49,49c-27,0 -48,-22 -48,-49c0,-27 21,-49 48,-49c27,0 49,22 49,49z" fill-rule="nonzero" fill="#7f0000"/>
      <path id="svg_14" d="m3490,2684c0,27 -22,49 -49,49c-26,0 -48,-22 -48,-49c0,-27 22,-49 48,-49c27,0 49,22 49,49z" fill-rule="nonzero" fill="#7f0000"/>
      <path id="svg_15" d="m3657,2684c0,27 -22,49 -48,49c-27,0 -49,-22 -49,-49c0,-27 22,-49 49,-49c26,0 48,22 48,49z" fill-rule="nonzero" fill="#7f0000"/>
      <path id="svg_16" d="m3824,2684c0,27 -21,49 -48,49c-27,0 -49,-22 -49,-49c0,-27 22,-49 49,-49c27,0 48,22 48,49z" fill-rule="nonzero" fill="#7f0000"/>
      <path id="svg_17" d="m3593,3101l-303,0c-42,0 -77,-34 -77,-77l0,0c0,-43 35,-78 77,-78l303,0c42,0 77,35 77,78l0,0c0,43 -35,77 -77,77z" fill-rule="nonzero" fill="#ffffff"/>
      <polygon id="svg_18" points="2997,3440 3928,3440 3928,3370 2997,3370 " fill-rule="nonzero" fill="#ffffff"/>
      <polygon id="svg_19" points="2697,3595 4241,3595 4241,3525 2697,3525 " fill-rule="nonzero" fill="#ffffff"/>
      <polygon id="svg_20" points="2761,3750 4176,3750 4176,3680 2761,3680 " fill-rule="nonzero" fill="#ffffff"/>
      <path id="svg_21" d="m1618,3427c-112,113 -210,224 -303,431c-26,-67 -20,-52 -83,-200c-29,-70 -215,-31 -220,31c0,0 -33,427 164,595c197,168 753,-534 753,-534c178,-243 -120,-475 -311,-323z" fill-rule="nonzero" fill="#bd081c"/>
      <path id="svg_22" d="m3049,4934c-210,409 -1739,263 -2002,41c-195,-286 510,-426 526,-426c346,-9 823,21 999,21c409,63 523,208 477,364z" fill-rule="nonzero" fill="#092E66"/>
      <path id="svg_23" d="m1569,4762c285,68 537,90 847,42c0,0 -475,210 -477,218c-3,8 -370,-260 -370,-260z" fill-rule="nonzero" fill="#051733"/>
      <path id="svg_24" d="m3012,4981c-306,339 -1613,307 -1362,-2c229,-28 856,-181 911,-211c193,-156 576,30 451,213z" fill-rule="nonzero" fill="#092E66"/>
      <path id="svg_25" d="m2816,5224c-15,-69 -94,-112 -178,-140c-40,48 -96,143 -100,283c187,42 304,-26 278,-143z" fill-rule="nonzero" fill="#bd081c"/>
      <path id="svg_26" d="m2402,5054c0,0 -78,-13 -101,80c-8,32 -31,95 46,145c76,42 128,74 191,88c4,-140 60,-235 100,-283c-109,-35 -236,-30 -236,-30z" fill-rule="nonzero" fill="#AAE0FF"/>
      <path id="svg_27" d="m2377,5065c150,36 73,219 -4,209c84,11 -1481,12 -1329,-462c1,0 1,0 1,0c58,-99 241,-186 388,-121c343,182 665,308 944,374z" fill-rule="nonzero" fill="#092E66"/>
      <path style="vector-effect: non-scaling-stroke;" id="svg_28" d="m2433,5263c0,0 -133,-10 -87,-117c46,-107 140,-44 140,-44c0,0 50,109 -53,161z" fill-rule="nonzero" fill="#AAE0FF"/>
      <path id="svg_29" d="m2440,5273c-4,0 -6,-3 -6,-6c-4,-98 56,-161 59,-164c2,-3 6,-3 8,0c3,2 3,6 1,8c-1,1 -59,63 -56,155c0,4 -3,6 -6,7c0,0 0,0 0,0z" fill-rule="nonzero" fill="white"/>
      <path id="svg_30" d="m2477,5287c-3,0 -6,-3 -6,-6c-3,-98 57,-161 59,-164c3,-2 7,-2 9,0c2,2 3,6 0,9c0,0 -59,62 -56,155c0,3 -2,6 -6,6c0,0 0,0 0,0z" fill-rule="nonzero" fill="white"/>
      <path id="svg_31" d="m2517,5297c-3,0 -6,-3 -6,-6c-3,-98 57,-161 59,-164c3,-2 6,-2 9,0c2,2 2,6 0,9c-1,0 -59,62 -56,155c0,3 -2,6 -6,6c0,0 0,0 0,0z" fill-rule="nonzero" fill="white"/>
      <path id="svg_32" d="m2393,5267c-32,18 -838,56 -1287,-234c-146,-94 -70,-229 -70,-229c0,0 105,392 1357,463z" fill-rule="nonzero" fill="#051733"/>
      <path id="svg_33" d="m2303,5061c-1,0 -2,0 -3,0c-581,-173 -849,-351 -851,-353c-5,-2 -6,-8 -3,-12c3,-4 9,-6 13,-3c2,2 268,179 847,350c4,2 7,7 6,12c-1,3 -5,6 -9,6z" fill-rule="nonzero" fill="#051733"/>
      <path id="svg_34" d="m1935,4931c-4,0 -8,-3 -9,-8c-1,-5 2,-9 7,-10c4,-1 370,-67 512,-128c5,-2 10,1 12,5c2,5 0,10 -4,12c-144,62 -501,126 -517,129c0,0 -1,0 -1,0z" fill-rule="nonzero" fill="#051733"/>
      <path id="svg_35" d="m2594,4570c13,98 -684,121 -1040,-21c-53,-220 -237,-1225 312,-1222c593,3 671,976 728,1243z" fill-rule="nonzero" fill="white"/>
      <path id="svg_36" d="m1033,3685l-8,-125l131,-19l49,111c6,33 -166,66 -172,33z" fill-rule="nonzero" fill="#F7A594"/>
      <path id="svg_37" d="m1162,3560l31,-202c0,0 -46,-13 -50,42c-4,55 -94,89 -70,143c23,53 89,17 89,17z" fill-rule="nonzero" fill="#F7A594"/>
      <path id="svg_38" d="m1029,3566c0,0 -98,-150 -106,-235c-1,-31 13,-40 13,-40l223,218c0,0 14,45 -3,64c-17,19 -82,46 -127,-7z" fill-rule="nonzero" fill="#F7A594"/>
      <path id="svg_39" d="m1167,3513c0,0 2,35 -18,28c-59,-18 -63,-105 -63,-105l81,77z" fill-rule="nonzero" fill="#CC7767"/>
      <path id="svg_40" d="m1255,3557l-415,-386c0,0 -15,-1 -24,5l438,402c3,-10 1,-21 1,-21z" fill-rule="nonzero" fill="#404040"/>
      <path id="svg_41" d="m816,3176c-6,5 -10,12 -6,27c12,35 378,373 415,385c18,6 26,-1 29,-10l-438,-402z" fill-rule="nonzero" fill="black"/>
      <path id="svg_42" d="m924,3310c0,0 4,-35 66,8c76,52 127,144 110,167c-22,30 -193,-106 -176,-175z" fill-rule="nonzero" fill="#F7A594"/>
      <path id="svg_43" d="m1754,3343c-394,87 -288,1027 -260,1231c74,30 315,88 409,104c-189,-447 -288,-1292 -149,-1335z" fill-rule="nonzero" fill="#bd081c"/>
      <path id="svg_44" d="m1985,3357c-44,213 -278,208 -282,88c0,-3 0,-7 0,-10l-19,-259l-2,-31l20,-4l187,-38l7,-1l5,17l24,67l60,171z" fill-rule="nonzero" fill="#F7A594"/>
      <path id="svg_45" d="m1979,3341c-74,174 24,1084 92,1356c184,62 461,-29 535,-122c-53,-248 -137,-1116 -627,-1234z" fill-rule="nonzero" fill="#bd081c"/>
      <path id="svg_46" d="m1961,3657c-29,157 26,429 68,570c113,83 288,40 288,-87c4,-115 -6,-244 -33,-389c-27,-327 -309,-324 -323,-94z" fill-rule="nonzero" fill="#bd081c"/>
      <path id="svg_47" d="m1789,3868c-116,-41 -176,125 -92,183c201,135 513,317 568,201c81,-169 -212,-300 -476,-384z" fill-rule="nonzero" fill="#bd081c"/>
      <path id="svg_48" d="m1682,3999l-86,-45c-54,-42 41,-128 79,-114l67,42c34,32 -14,114 -60,117z" fill-rule="nonzero" fill="#F7A594"/>
      <path id="svg_49" d="m1604,3956c-70,-15 -46,-86 -30,-167c-56,-243 253,173 30,167z" fill-rule="nonzero" fill="#F7A594"/>
      <path id="svg_50" d="m1635,3758c0,0 -23,-36 -73,-116c-23,5 -35,45 -5,80c27,30 66,51 78,36z" fill-rule="nonzero" fill="#F7A594"/>
      <path id="svg_51" d="m1566,3737c-51,-29 -87,54 -73,120c20,100 94,50 116,24c41,-49 19,-109 -43,-144z" fill-rule="nonzero" fill="#F7A594"/>
      <path id="svg_52" d="m1967,3938c-2,0 -5,-2 -6,-5c0,-2 -36,-224 9,-373c1,-4 4,-5 7,-4c3,1 5,4 4,7c-43,147 -8,366 -8,368c1,3 -1,7 -5,7c0,0 0,0 -1,0z" fill-rule="nonzero" fill="#003331"/>
      <path id="svg_53" d="m2179,4280c-100,0 -219,-63 -226,-66c-3,-2 -4,-6 -2,-9c1,-3 5,-4 8,-2c2,1 231,122 314,31c73,-81 19,-429 18,-432c0,-4 2,-7 5,-7c4,-1 7,1 7,5c3,14 56,357 -21,442c-26,28 -63,38 -103,38z" fill-rule="nonzero" fill="#003331"/>
      <path id="svg_54" d="m2098,3991c-1,0 -2,0 -3,-1c-146,-65 -330,-124 -331,-124c-4,-1 -5,-5 -4,-8c1,-3 4,-5 7,-4c2,1 186,60 333,125c3,2 5,5 3,8c-1,2 -3,4 -5,4z" fill-rule="nonzero" fill="white"/>
      <path id="svg_55" d="m1703,3439c-6,-57 -37,-272 -1,-298l187,-38c43,236 -117,353 -186,336z" fill-rule="nonzero" fill="#D97661"/>
      <path id="svg_56" d="m1958,3061c-9,193 -180,342 -307,335c-128,-7 -284,-170 -275,-362c9,-192 147,-342 307,-334c161,7 284,169 275,361z" fill-rule="nonzero" fill="#F7A594"/>
      <path id="svg_57" d="m1785,2727c-161,-132 -270,-40 -370,59c-71,70 -121,121 -199,123c124,202 431,117 546,-57c-4,107 109,209 196,209c43,-113 -9,-360 -173,-334z" fill-rule="nonzero" fill="#0E0E0E"/>
      <path id="svg_58" d="m1994,3078c-5,36 -38,62 -74,57c-36,-4 -62,-37 -58,-74c5,-36 38,-62 74,-57c37,4 62,37 58,74z" fill-rule="nonzero" fill="#F7A594"/>
      <path id="svg_59" d="m1572,3256c-5,0 -10,-1 -13,-4c-17,-11 -1,-110 5,-140c0,-2 2,-3 4,-3c2,0 4,2 4,4c-11,59 -17,127 -9,133c11,8 38,-6 47,-12c2,-1 5,-1 6,1c1,2 0,4 -1,5c-3,2 -25,16 -43,16z" fill-rule="nonzero" fill="#BD4A31"/>
      <path id="svg_60" d="m1690,3090c3,15 12,26 20,24c7,-1 11,-15 7,-31c-3,-15 -12,-26 -20,-24c-7,1 -11,15 -7,31z" fill-rule="nonzero" fill="#0E0E0E"/>
      <path id="svg_61" d="m1446,3150c3,14 12,24 19,23c7,-2 10,-15 7,-29c-3,-14 -12,-25 -19,-23c-7,1 -10,14 -7,29z" fill-rule="nonzero" fill="#0E0E0E"/>
      <path id="svg_62" d="m1685,3296c-6,0 -10,-1 -10,-1c-3,0 -4,-2 -4,-4c0,-2 2,-4 5,-4c0,0 40,5 68,-19c18,-15 28,-39 29,-71c0,-2 2,-4 4,-4c3,0 4,2 4,4c-1,35 -12,60 -32,77c-22,19 -49,22 -64,22z" fill-rule="nonzero" fill="#803221"/>
      <path id="svg_63" d="m1661,3050c0,0 0,0 0,0c-2,0 -4,-2 -4,-4c1,-16 12,-29 28,-34c17,-5 33,0 43,13c1,2 1,4 -1,6c-2,1 -4,0 -6,-1c-7,-10 -20,-14 -34,-10c-10,3 -21,11 -22,26c0,2 -2,4 -4,4z" fill-rule="nonzero" fill="#803221"/>
      <path id="svg_64" d="m1428,3106c-1,0 -1,0 -1,0c-2,0 -4,-2 -3,-4c2,-24 16,-34 28,-36c15,-2 29,8 35,24c1,2 0,4 -2,5c-3,1 -5,-1 -5,-3c-5,-12 -16,-19 -27,-18c-9,1 -20,9 -22,28c0,2 -1,4 -3,4z" fill-rule="nonzero" fill="#803221"/>
      <path id="svg_65" d="m926,2687l-843,0c-46,0 -83,-37 -83,-83l0,-335c0,-46 37,-83 83,-83l843,0c46,0 83,37 83,83l0,335c0,46 -37,83 -83,83z" fill-rule="nonzero" fill="#f40d26"/>
      <polygon id="svg_66" points="842,2606 842,2832 612,2602 " fill-rule="nonzero" fill="#f40d26"/>
      <path id="svg_67" d="m237,2441c0,24 -20,44 -44,44c-24,0 -44,-20 -44,-44c0,-24 20,-44 44,-44c24,0 44,20 44,44z" fill-rule="nonzero" fill="white"/>
      <path id="svg_68" d="m384,2441c0,24 -19,44 -44,44c-24,0 -44,-20 -44,-44c0,-24 20,-44 44,-44c25,0 44,20 44,44z" fill-rule="nonzero" fill="white"/>
      <path id="svg_69" d="m532,2441c0,24 -20,44 -44,44c-24,0 -44,-20 -44,-44c0,-24 20,-44 44,-44c24,0 44,20 44,44z" fill-rule="nonzero" fill="white"/>
      <path id="svg_70" d="m679,2441c0,24 -19,44 -44,44c-24,0 -44,-20 -44,-44c0,-24 20,-44 44,-44c25,0 44,20 44,44z" fill-rule="nonzero" fill="white"/>
      <path id="svg_71" d="m827,2441c0,24 -20,44 -44,44c-25,0 -44,-20 -44,-44c0,-24 19,-44 44,-44c24,0 44,20 44,44z" fill-rule="nonzero" fill="white"/>
      <path id="svg_72" d="m1853,1994l-534,0c-55,0 -99,-44 -99,-99l0,-396c0,-55 44,-99 99,-99l534,0c55,0 99,44 99,99l0,396c0,55 -44,99 -99,99z" fill-rule="nonzero" fill="#f40d26"/>
      <polygon id="svg_73" points="1485,1975 1569,2122 1661,1975 " fill-rule="nonzero" fill="#f40d26"/>
      <polygon id="svg_74" points="1570,1683 1424,1573 1715,1573 " fill-rule="nonzero" fill="#ffffff"/>
      <polygon id="svg_75" points="1728,1601 1728,1792 1412,1792 1412,1601 1570,1720 " fill-rule="nonzero" fill="#ffffff"/>
      <path id="svg_76" d="m6165,5305l-5393,0c-17,0 -31,-14 -31,-30c0,-17 14,-31 31,-31l5393,0c17,0 30,14 30,31c0,16 -13,30 -30,30z" fill-rule="nonzero" fill="#bd081c"/>
     </g>
    </g>
   </svg>